<svg data-name="Layer 1" xmlns="http://www.w3.org/2000/svg" viewBox="0 0 16 16"><path d="m8.06 8.27.66-1.84a.47.47 0 0 0-.28-.61.48.48 0 0 0-.61.29L6.71 9.27h1.18L7.25 11c0 .12 0 .53.29.6a.5.5 0 0 0 .6-.31l1.1-3.06H8.06m-3.25 7.23a1.55 1.55 0 0 1-1.53-1.54V3.7a1.5 1.5 0 0 1 .45-1.08 1.53 1.53 0 0 1 1.08-.45h1v-1a1.17 1.17 0 0 1 .34-.83A1.09 1.09 0 0 1 7 0h2a1.07 1.07 0 0 1 .8.34 1.08 1.08 0 0 1 .33.81v1h1.08a1.54 1.54 0 0 1 1.5 1.55v10.22a1.56 1.56 0 0 1-1.45 1.54m-6.45-.94h6.42a.5.5 0 0 0 .51-.5V3.7a.54.54 0 0 0-.16-.42.63.63 0 0 0-.43-.17h-1.3a.71.71 0 0 1-.49-.21.7.7 0 0 1-.2-.49V1.14a.15.15 0 0 0 0-.14A.16.16 0 0 0 9 .94H7a.21.21 0 0 0-.2.19v1.3a.68.68 0 0 1-.68.68H4.81a.63.63 0 0 0-.42.17.59.59 0 0 0-.17.42v10.22a.61.61 0 0 0 .59.6" fill="#56586a"/></svg>