<svg data-name="Layer 1" xmlns="http://www.w3.org/2000/svg" viewBox="0 0 16 16"><path d="m11.38 15 .51.26a1.16 1.16 0 0 1-.63.18H4.81a1.55 1.55 0 0 1-1.53-1.54V3.7a1.5 1.5 0 0 1 .45-1.08 1.53 1.53 0 0 1 1.08-.45h1v-1a1.21 1.21 0 0 1 .33-.83A1.13 1.13 0 0 1 7 0h2a1.07 1.07 0 0 1 .8.34 1.08 1.08 0 0 1 .33.81v1h1.08a1.54 1.54 0 0 1 1.5 1.55v3.72L12 7.29h-.22V3.7a.54.54 0 0 0-.16-.42.63.63 0 0 0-.43-.17H9.85a.71.71 0 0 1-.49-.21.7.7 0 0 1-.2-.49V1.14a.15.15 0 0 0 0-.14A.16.16 0 0 0 9 .94H7a.21.21 0 0 0-.2.19v1.3a.68.68 0 0 1-.68.68H4.81a.63.63 0 0 0-.42.17.59.59 0 0 0-.17.42v10.22a.61.61 0 0 0 .59.6h5.87ZM7.54 9.6a.5.5 0 0 0 .6-.31l1.1-3.06H8.06l.66-1.84a.47.47 0 0 0-.28-.61.48.48 0 0 0-.61.29l-1.12 3.2h1.18L7.25 9c-.04.12-.03.53.29.6Zm4.66 5.63a5.46 5.46 0 0 0 3-4.87v-2a.49.49 0 0 0-.4-.49l-2.74-.57a.31.31 0 0 0-.19 0l-2.72.53a.49.49 0 0 0-.41.49v2a5.47 5.47 0 0 0 3 4.87.47.47 0 0 0 .46 0ZM12 8.3l2.22.43v1.63A4.48 4.48 0 0 1 12 14.22a4.49 4.49 0 0 1-2.23-3.86V8.73Zm-.23 1" fill="#56586a"/></svg>