<svg version="1.0" xmlns="http://www.w3.org/2000/svg"
 viewBox="0 0 512.000000 392.000000"
 preserveAspectRatio="xMidYMid meet">

<g transform="translate(0.000000,392.000000) scale(0.100000,-0.100000)"
fill="#56586a" stroke="none">
<path d="M2324 3858 c-34 -16 -44 -52 -44 -163 l0 -105 -212 0 c-236 0 -381
-11 -531 -40 -114 -22 -139 -39 -139 -91 1 -38 108 -482 123 -511 18 -33 53
-39 127 -22 49 12 141 17 350 21 l282 5 0 -106 c0 -118 10 -149 52 -167 24
-10 35 -9 57 2 34 17 516 538 526 568 3 11 3 31 0 42 -8 25 -488 548 -519 566
-25 15 -44 15 -72 1z m323 -495 l85 -93 -75 -82 c-41 -46 -107 -117 -146 -158
l-70 -75 -1 42 c0 54 -16 88 -47 102 -46 21 -546 13 -733 -12 -11 -2 -24 33
-52 143 -20 80 -37 150 -37 156 -2 26 127 37 459 41 195 2 346 8 361 14 32 13
49 47 49 102 l1 42 61 -65 c33 -36 99 -107 145 -157z"/>
<path d="M948 3330 c-189 -108 -365 -253 -514 -424 l-60 -68 -56 31 c-77 44
-117 41 -143 -9 -13 -26 -11 -60 26 -352 22 -178 45 -335 50 -349 22 -56 33
-55 393 16 182 36 341 70 354 75 27 11 45 55 37 87 -3 12 -33 46 -68 74 -34
29 -62 56 -62 61 0 14 145 157 209 206 33 25 98 69 145 98 127 76 128 62 -7
329 -62 123 -122 235 -133 249 -31 40 -70 34 -171 -24z m157 -281 c47 -95 66
-143 58 -146 -7 -3 -52 -32 -99 -66 -158 -112 -354 -324 -354 -383 0 -13 14
-39 31 -58 l30 -35 -23 -6 c-13 -3 -98 -20 -191 -39 l-167 -33 -5 21 c-6 31
-45 338 -45 358 0 14 4 15 28 6 46 -18 76 -3 123 59 65 87 224 247 314 318 91
71 203 145 219 145 7 0 43 -64 81 -141z"/>
<path d="M1415 2336 c-117 -29 -147 -54 -352 -293 -121 -140 -188 -211 -217
-226 -37 -20 -60 -22 -236 -27 -214 -6 -243 -13 -301 -77 -63 -67 -64 -72 -67
-388 -4 -327 3 -387 60 -503 22 -46 56 -91 108 -143 121 -122 245 -168 451
-169 l105 0 18 -60 c67 -222 300 -369 528 -331 182 30 333 160 384 331 l18 60
806 0 806 0 18 -60 c51 -171 202 -301 384 -331 227 -38 461 109 527 330 l18
59 126 4 c94 4 139 10 177 25 113 44 191 122 236 233 20 49 22 77 26 266 3
172 1 224 -13 275 -30 121 -104 213 -210 264 -27 13 -205 63 -395 110 -190 48
-363 94 -385 104 -23 10 -202 120 -398 245 -197 125 -382 238 -411 251 -139
61 -98 59 -966 61 -612 2 -806 0 -845 -10z m1703 -175 c36 -13 216 -121 423
-252 199 -126 383 -241 409 -254 27 -14 212 -65 415 -116 419 -105 438 -113
488 -209 l28 -54 -3 -221 -3 -222 -30 -49 c-19 -30 -49 -60 -79 -79 -47 -28
-56 -30 -171 -33 l-121 -4 -18 61 c-51 172 -202 302 -384 332 -228 38 -461
-109 -528 -331 l-18 -60 -806 0 -806 0 -18 60 c-67 222 -300 369 -528 331
-182 -30 -333 -160 -384 -332 l-18 -61 -136 4 c-128 3 -138 5 -201 36 -85 41
-168 128 -201 209 -22 56 -23 71 -26 360 l-3 303 25 25 c25 25 28 25 180 25
169 0 236 10 307 46 70 35 96 60 275 270 137 159 175 198 217 219 l52 26 800
-3 800 -3 63 -24z m-1561 -1273 c77 -29 152 -104 181 -181 80 -213 -73 -437
-298 -437 -176 0 -320 144 -320 320 0 225 224 378 437 298z m2560 0 c77 -29
152 -104 181 -181 80 -213 -73 -437 -298 -437 -176 0 -320 144 -320 320 0 225
224 378 437 298z"/>
<path d="M1403 658 c-55 -27 -50 -114 8 -138 89 -37 151 99 63 139 -30 13 -42
13 -71 -1z"/>
<path d="M3963 658 c-55 -27 -50 -114 8 -138 89 -37 151 99 63 139 -30 13 -42
13 -71 -1z"/>
</g>
</svg>
