<svg width="25" height="24" viewBox="0 0 25 24" fill="none" xmlns="http://www.w3.org/2000/svg">
<g clip-path="url(#clip0_104_2334)">
<path d="M5.61317 9.16943C4.1814 9.16943 3.0166 10.3342 3.0166 11.766C3.0166 13.1978 4.1814 14.3626 5.61317 14.3626C7.04493 14.3626 8.20973 13.1978 8.20973 11.766C8.20973 10.3342 7.04493 9.16943 5.61317 9.16943ZM5.61317 12.9509C4.95985 12.9509 4.42827 12.4194 4.42827 11.766C4.42827 11.1126 4.95985 10.5811 5.61317 10.5811C6.26648 10.5811 6.79806 11.1126 6.79806 11.766C6.79806 12.4194 6.26648 12.9509 5.61317 12.9509Z" fill="white"/>
<path d="M10.2108 15.3022C8.77906 15.3022 7.61426 16.467 7.61426 17.8988C7.61426 19.3305 8.77906 20.4953 10.2108 20.4953C11.6425 20.4953 12.8073 19.3305 12.8073 17.8988C12.8073 16.467 11.6425 15.3022 10.2108 15.3022ZM10.2108 19.0837C9.55746 19.0837 9.02593 18.5521 9.02593 17.8988C9.02593 17.2454 9.55746 16.7139 10.2108 16.7139C10.8641 16.7139 11.3957 17.2454 11.3957 17.8988C11.3957 18.5521 10.8641 19.0837 10.2108 19.0837Z" fill="white"/>
<path d="M23.8497 15.2797C23.845 15.2751 23.8403 15.2705 23.8356 15.266L21.3915 12.9596C22.7596 11.9251 23.3777 10.0939 22.8156 8.39986C20.1658 0.405368 9.9834 -2.13091 3.91616 3.84466C-0.627892 8.32005 -0.585492 15.5362 3.72585 19.9799C7.59903 23.972 13.702 24.5326 18.2064 21.5841C20.3157 20.2038 19.346 16.9181 16.8218 16.9181C14.9367 16.9181 14.6199 14.2823 16.4006 13.831L20.7067 18.3945C20.7112 18.3992 20.7157 18.4039 20.7203 18.4086C21.5835 19.2737 22.9857 19.2761 23.8512 18.4105C24.7165 17.5452 24.7165 16.1446 23.8497 15.2797ZM14.7296 17.4964C15.2967 18.0338 16.0397 18.3297 16.8219 18.3297C17.9492 18.3297 18.3743 19.7873 17.4333 20.403C13.491 22.9837 8.13663 22.4989 4.73903 18.9969C0.928296 15.0693 0.950743 8.76603 4.92237 4.85939C10.2444 -0.375525 19.1458 1.81459 21.4757 8.84419C21.8705 10.034 21.3772 11.3268 20.3425 11.9698L16.4218 8.27007C16.6592 7.1304 16.3304 5.92895 15.4691 5.06763C14.388 3.9865 10.9822 3.44763 9.50618 3.2873C9.05851 3.23855 8.67945 3.61699 8.72816 4.06532C8.8898 5.54706 9.42552 8.94513 10.5085 10.0282C11.3705 10.89 12.5725 11.2181 13.7113 10.9808L15.3628 12.731C13.6042 13.6857 13.2471 16.0915 14.7296 17.4964ZM11.5067 9.02998C10.9748 8.49807 10.4995 6.47506 10.2486 4.80772C11.916 5.05859 13.939 5.53389 14.4709 6.06579C15.2899 6.8848 15.29 8.21073 14.4709 9.02998C13.6537 9.84725 12.3275 9.85078 11.5067 9.02998ZM22.8531 17.4124C22.542 17.7234 22.0386 17.7249 21.7257 17.4174C21.3643 17.0345 15.4067 10.7206 15.0747 10.3688C15.3532 10.162 15.6028 9.91238 15.8099 9.6336L22.8586 16.285C23.1663 16.5983 23.1646 17.1008 22.8531 17.4124Z" fill="white"/>
</g>
<defs>
<clipPath id="clip0_104_2334">
<rect width="24" height="24" fill="white" transform="translate(0.5)"/>
</clipPath>
</defs>
</svg>
