<svg data-name="Layer 1" xmlns="http://www.w3.org/2000/svg" viewBox="0 0 16 16"><path d="M8.4 14.35A18.06 18.06 0 0 1 4.9 14c.31 0 .72-.58.72-.58 1.79.22 5.87.49 7.09-.58a.68.68 0 0 0 .27-.54c0-.65-.62-.86-1.65-1.12s-2-.49-1.86-1.55c.13-1.27 1.7-1.4 2.24-1.41l.58.68c-.73 0-2 0-2.09.8 0 .33.36.5 1.31.74s2.21.55 2.21 1.84a1.41 1.41 0 0 1-.52 1.12c-.92.75-2.99.95-4.8.95ZM4.69 14a.89.89 0 0 0 .65-.29c.79-.87 3.18-4 3.77-6.68A4.45 4.45 0 0 0 7.42 2.2a5.08 5.08 0 0 0-5.4 0A4.48 4.48 0 0 0 .24 7 17.63 17.63 0 0 0 4 13.7a.91.91 0 0 0 .66.28ZM2.56 3a4 4 0 0 1 4.3 0 3.45 3.45 0 0 1 1.27 3.81 16.9 16.9 0 0 1-3.45 6.12 16.61 16.61 0 0 1-3.46-6.12A3.48 3.48 0 0 1 2.56 3ZM7 5.9a2.3 2.3 0 0 0-2.32-2.28A2.29 2.29 0 1 0 7 5.9Zm-1 0a1.33 1.33 0 1 1-1.32-1.28A1.31 1.31 0 0 1 6 5.9ZM12.8 9a.75.75 0 0 0 .54-.24 11.66 11.66 0 0 0 2.45-4.34 3 3 0 0 0-1.15-3.24 3.37 3.37 0 0 0-3.65 0 3 3 0 0 0-1.2 3.26 11.43 11.43 0 0 0 2.45 4.36.75.75 0 0 0 .55.23Zm-1.26-7a2.38 2.38 0 0 1 2.54 0 2 2 0 0 1 .73 2.21 10.28 10.28 0 0 1-2 3.66 10.23 10.23 0 0 1-2-3.66A2 2 0 0 1 11.54 2Zm2.92 1.68a1.67 1.67 0 1 0-1.67 1.64 1.66 1.66 0 0 0 1.67-1.61Zm-1 0a.66.66 0 0 1-.67.64.65.65 0 0 1-.66-.64.64.64 0 0 1 .66-.63.65.65 0 0 1 .67.66Z" fill="#56586a" fill-rule="evenodd"/></svg>