<?xml version="1.0" standalone="no"?>
<!DOCTYPE svg PUBLIC "-//W3C//DTD SVG 20010904//EN"
 "http://www.w3.org/TR/2001/REC-SVG-20010904/DTD/svg10.dtd">
<svg version="1.0" xmlns="http://www.w3.org/2000/svg"
 width="256.000000pt" height="256.000000pt" viewBox="0 0 256.000000 256.000000"
 preserveAspectRatio="xMidYMid meet">
<metadata>
Created by potrace 1.14, written by Peter Selinger 2001-2017
</metadata>
<g transform="translate(0.000000,256.000000) scale(0.100000,-0.100000)"
fill="#000000" stroke="none">
<path d="M1290 2135 c0 -6 -88 -10 -243 -11 -250 -1 -282 -4 -345 -32 -20 -8
-40 -15 -44 -14 -5 1 -8 -1 -8 -6 0 -4 -15 -14 -32 -21 -87 -39 -258 -258
-306 -393 -9 -27 -20 -48 -25 -48 -4 0 -27 9 -49 20 -32 15 -62 20 -125 20
l-84 0 2 -100 c1 -94 5 -110 23 -93 6 7 29 13 54 15 6 1 12 4 12 8 0 3 8 7 18
8 26 3 44 8 75 20 42 17 48 15 43 -15 -2 -16 -5 -31 -5 -35 -1 -5 -8 -8 -16
-8 -23 0 -76 -29 -97 -54 -36 -40 -57 -104 -58 -169 0 -34 0 -93 -1 -132 0
-38 0 -95 0 -125 1 -30 0 -68 -2 -85 -1 -16 1 -40 5 -52 4 -12 3 -25 -3 -28
-5 -4 -6 -11 -3 -17 8 -12 9 -117 1 -124 -9 -9 14 -67 36 -92 12 -12 37 -25
56 -28 l36 -6 1 -64 c1 -68 16 -110 43 -117 9 -2 80 -3 158 -3 176 1 183 5
185 110 1 37 6 70 11 73 5 3 127 5 271 5 183 0 270 3 286 11 24 12 35 40 45
112 3 22 8 51 10 65 2 14 7 45 10 70 3 25 10 60 15 78 14 53 2 57 -163 56
-162 -1 -155 -4 -127 61 18 43 141 381 145 399 2 10 6 20 8 22 2 3 57 5 123 6
105 2 119 0 122 -15 2 -9 -20 -78 -48 -152 -29 -75 -50 -138 -48 -140 2 -2 75
-5 161 -6 87 -1 160 -6 163 -10 3 -5 0 -9 -5 -9 -6 0 -11 -7 -11 -15 0 -8 -5
-15 -11 -15 -5 0 -8 -4 -5 -9 4 -5 3 -11 -2 -13 -7 -3 -39 -50 -120 -178 -23
-36 -45 -69 -49 -75 -17 -22 -63 -95 -63 -100 0 -4 -7 -14 -16 -22 -21 -22
-12 -82 16 -105 18 -15 54 -17 334 -16 173 0 318 -2 323 -5 5 -3 8 -32 7 -64
-3 -112 11 -120 195 -117 177 2 174 2 166 14 -3 6 -1 10 4 10 12 0 26 69 24
115 -2 31 13 58 28 49 5 -2 25 10 45 29 l37 34 1 335 c0 369 -3 397 -59 453
-16 16 -47 38 -67 47 -30 14 -38 23 -38 44 0 24 3 26 28 20 15 -4 39 -10 55
-13 15 -3 27 -9 27 -12 0 -4 6 -8 13 -9 6 0 28 -4 47 -7 l35 -7 -2 89 c-1 48
-2 92 -2 96 -1 4 -44 7 -97 6 -70 -1 -97 -5 -101 -15 -3 -8 -9 -11 -14 -8 -5
3 -9 0 -9 -6 0 -26 -22 6 -60 87 -22 48 -48 95 -57 105 -9 10 -13 18 -9 18 6
0 -29 43 -71 87 -12 13 -20 23 -17 23 7 0 -9 15 -78 74 -32 27 -58 45 -58 42
0 -4 -12 1 -27 12 -30 20 -102 48 -117 44 -4 -2 -13 1 -20 6 -6 4 -44 8 -83 7
-42 0 -73 4 -73 10 0 7 -3 7 -8 0 -4 -5 -20 -10 -37 -10 -16 0 -33 5 -37 10
-5 7 -8 7 -8 0 0 -6 -44 -10 -112 -10 -64 0 -116 4 -120 10 -5 7 -8 7 -8 0z
m-29 -159 c49 -1 89 2 89 7 0 4 5 5 12 1 19 -12 68 -12 68 0 0 7 3 7 8 1 9
-13 72 -16 72 -3 0 5 5 6 12 2 18 -11 68 -13 68 -2 0 5 5 6 11 2 7 -4 42 -8
79 -10 66 -2 134 -20 188 -48 53 -28 133 -110 186 -190 51 -76 60 -96 57 -121
-1 -13 -1645 -15 -1657 -2 -12 12 42 111 96 180 34 43 99 105 104 100 3 -3 8
2 12 11 3 9 10 13 15 10 5 -3 9 0 9 5 0 6 9 11 20 11 11 0 20 4 20 9 0 8 14
12 95 29 17 3 96 6 177 6 82 1 148 5 148 9 0 5 5 5 11 1 6 -3 51 -7 100 -8z
m-808 -658 c10 2 17 -3 17 -12 0 -9 -4 -16 -10 -16 -5 0 -17 -14 -25 -30 -9
-17 -20 -28 -25 -25 -6 4 -13 -2 -17 -12 -4 -10 -23 -34 -42 -54 -20 -20 -60
-61 -89 -92 -30 -32 -57 -55 -61 -52 -4 2 -7 41 -5 85 5 131 58 199 162 206
24 2 47 6 50 8 3 3 10 2 16 -2 6 -3 19 -5 29 -4z m1752 2 c0 -1 11 -3 25 -4
42 -4 87 -33 111 -73 18 -30 23 -57 27 -130 5 -101 -2 -112 -41 -67 -22 26
-50 55 -169 182 -73 77 -83 97 -43 90 14 -3 27 -2 30 1 3 6 60 6 60 1z"/>
</g>
</svg>
